<?xml version="1.0" standalone="no"?>
<!DOCTYPE svg PUBLIC "-//W3C//DTD SVG 20010904//EN"
 "http://www.w3.org/TR/2001/REC-SVG-20010904/DTD/svg10.dtd">
<svg version="1.0" xmlns="http://www.w3.org/2000/svg"
 width="1415.000000pt" height="176.000000pt" viewBox="0 0 1415.000000 176.000000"
 preserveAspectRatio="xMidYMid meet">

<g transform="translate(0.000000,176.000000) scale(0.100000,-0.100000)"
fill="currentcolor" stroke="none">
<path d="M6870 1623 c-28 -11 -59 -45 -65 -73 -9 -41 17 -95 54 -111 28 -12
31 -18 31 -56 l0 -43 -165 0 c-137 0 -165 2 -165 14 0 8 -10 27 -23 42 -34 39
-105 40 -143 3 -52 -53 -30 -146 40 -169 45 -15 99 9 118 51 l13 29 132 0 133
0 0 -59 c0 -54 -2 -59 -25 -65 -26 -7 -55 -51 -55 -85 0 -11 14 -33 31 -50 36
-37 75 -40 112 -11 50 40 42 120 -16 148 -24 12 -27 18 -27 67 0 53 0 54 32
57 l32 3 -3 58 c-2 44 1 57 12 57 23 0 64 37 74 67 13 37 -2 89 -30 108 -27
17 -76 27 -97 18z m92 -47 c57 -70 -30 -160 -106 -110 -30 19 -39 53 -25 92
18 52 96 62 131 18z m-439 -196 c40 -47 5 -130 -55 -130 -50 0 -78 26 -78 73
0 54 22 77 74 77 29 0 47 -6 59 -20z"/>
<path d="M422 1275 c-29 -7 -73 -23 -98 -36 -67 -34 -156 -125 -190 -194 -27
-57 -29 -67 -29 -185 0 -123 1 -126 34 -185 68 -124 177 -204 309 -227 186
-32 368 62 453 233 28 56 33 76 37 167 l5 102 -212 0 -211 0 0 -85 0 -85 120
0 c89 0 120 -3 120 -12 0 -7 -15 -33 -34 -58 -67 -92 -213 -128 -314 -77 -84
42 -124 94 -143 182 -10 52 -10 68 5 119 31 107 136 186 247 186 47 0 110 -20
147 -48 l34 -24 54 53 c30 29 54 58 54 64 -1 13 -32 36 -103 74 -40 22 -80 33
-139 41 -45 5 -85 10 -88 9 -3 0 -29 -6 -58 -14z"/>
<path d="M1570 1276 c-79 -17 -137 -51 -201 -116 -67 -67 -90 -110 -115 -209
-15 -65 -16 -83 -5 -145 16 -94 47 -159 109 -227 127 -139 343 -178 506 -91
70 37 158 128 192 199 39 80 46 222 15 313 -48 143 -176 252 -330 280 -67 12
-101 12 -171 -4z m182 -168 c50 -15 123 -79 150 -131 29 -58 29 -167 0 -222
-27 -50 -38 -64 -82 -96 -175 -129 -426 9 -408 225 14 167 175 274 340 224z"/>
<path d="M3140 1276 c-103 -22 -212 -103 -272 -201 -31 -51 -58 -148 -58 -209
0 -209 170 -399 378 -422 179 -19 355 80 435 245 27 57 32 79 35 164 l4 97
-211 0 -211 0 0 -85 0 -85 120 0 c66 0 120 -3 120 -7 0 -37 -99 -131 -159
-152 -89 -30 -201 -3 -266 65 -50 51 -67 88 -73 161 -4 56 -1 70 26 126 44 90
133 147 229 147 43 0 126 -27 156 -51 l27 -20 57 55 c56 54 57 55 39 75 -71
78 -251 124 -376 97z"/>
<path d="M4290 1276 c-89 -21 -128 -43 -200 -114 -77 -77 -107 -132 -122 -228
-21 -139 20 -268 118 -367 254 -256 697 -94 721 263 8 108 -23 225 -74 279
-99 108 -169 152 -267 170 -73 14 -106 13 -176 -3z m194 -177 c96 -35 157
-126 159 -234 1 -186 -196 -311 -367 -230 -95 45 -146 125 -146 230 0 186 175
301 354 234z"/>
<path d="M1010 865 l0 -415 85 0 85 0 0 415 0 415 -85 0 -85 0 0 -415z"/>
<path d="M2160 866 l0 -416 80 0 80 0 0 161 c0 94 4 158 9 155 5 -4 55 -76
111 -161 l102 -155 99 0 c55 0 99 2 99 5 0 2 -13 24 -29 47 -92 138 -151 228
-151 232 0 3 15 12 33 20 80 34 130 115 135 223 5 94 -16 159 -71 213 -78 78
-98 84 -309 88 l-188 4 0 -416z m332 239 c73 -30 92 -122 39 -185 -28 -35 -30
-35 -120 -38 l-91 -4 0 121 0 121 69 0 c38 0 84 -7 103 -15z"/>
<path d="M3730 865 l0 -415 85 0 85 0 0 415 0 415 -85 0 -85 0 0 -415z"/>
<path d="M9025 1269 c-124 -12 -256 -111 -317 -239 -28 -59 -31 -74 -31 -165
0 -80 5 -110 22 -149 48 -109 144 -203 246 -241 70 -26 201 -26 278 0 112 38
224 154 261 270 9 28 16 83 16 122 0 116 -41 207 -132 295 -91 87 -199 121
-343 107z m180 -181 c82 -43 127 -121 128 -223 0 -60 -4 -80 -28 -123 -50 -91
-165 -144 -267 -123 -217 47 -276 325 -95 449 23 17 54 32 67 35 46 10 165 0
195 -15z"/>
<path d="M11393 1258 c-7 -13 -22 -45 -34 -73 -12 -27 -36 -81 -54 -120 -18
-38 -45 -98 -59 -133 -24 -58 -53 -120 -123 -272 -27 -58 -83 -190 -83 -196 0
-2 38 -4 84 -4 l83 0 27 60 27 61 146 -3 145 -3 23 -55 23 -55 87 -3 c102 -3
99 -15 28 138 -24 52 -48 104 -53 115 -5 11 -25 55 -44 98 -20 42 -36 79 -36
82 0 2 -17 41 -39 87 -21 46 -49 106 -61 133 -72 163 -75 168 -87 143z m37
-413 c0 -5 7 -23 16 -40 9 -16 20 -42 24 -57 l9 -28 -74 0 c-84 0 -79 -10 -40
85 33 82 37 87 51 67 7 -9 14 -21 14 -27z"/>
<path d="M12640 1228 c-12 -29 -40 -90 -61 -136 -22 -46 -39 -85 -39 -87 0 -3
-16 -38 -35 -80 -34 -72 -75 -164 -152 -340 -20 -44 -39 -84 -44 -89 -26 -28
-8 -36 75 -36 l83 0 27 60 27 60 144 0 144 0 27 -60 27 -60 83 0 c46 0 84 2
84 4 0 3 -59 137 -115 261 -15 33 -36 80 -47 105 -11 25 -31 68 -44 97 -13 28
-24 54 -24 57 0 3 -17 42 -39 88 -21 46 -49 108 -62 138 -12 30 -25 59 -29 63
-4 4 -17 -16 -30 -45z m69 -427 c17 -40 31 -75 31 -77 0 -2 -34 -4 -76 -4 -57
0 -75 3 -71 13 25 65 72 155 78 149 4 -4 21 -40 38 -81z"/>
<path d="M13100 870 l0 -410 85 0 85 0 2 223 3 222 90 -86 c50 -47 126 -119
170 -160 43 -41 104 -99 135 -129 31 -30 64 -61 73 -69 16 -13 17 12 17 398
l0 411 -80 0 -80 0 -2 -225 -3 -224 -60 57 c-33 31 -136 129 -230 217 -93 88
-174 166 -178 173 -4 6 -12 12 -17 12 -6 0 -10 -158 -10 -410z"/>
<path d="M8195 1252 c-72 -31 -101 -50 -150 -99 -65 -66 -102 -134 -116 -216
-35 -197 76 -390 266 -462 67 -26 222 -26 280 0 49 21 145 84 145 95 0 8 -62
74 -92 98 -14 11 -22 9 -56 -13 -21 -14 -64 -31 -95 -37 -176 -37 -340 147
-282 317 22 64 67 121 116 146 79 40 190 37 254 -7 20 -13 39 -24 43 -24 17 0
111 101 106 114 -5 14 -82 60 -149 88 -56 23 -215 23 -270 0z"/>
<path d="M9790 1239 c-80 -38 -172 -129 -205 -202 -39 -87 -48 -162 -30 -253
27 -129 113 -237 235 -296 60 -29 73 -31 170 -31 99 -1 109 1 171 32 36 18 78
44 94 58 l27 26 -55 54 -54 55 -40 -25 c-111 -70 -231 -59 -318 30 -58 59 -79
115 -73 196 6 71 33 123 92 175 79 69 219 69 318 0 15 -11 25 -5 72 41 30 30
53 58 51 62 -10 15 -112 76 -155 92 -31 12 -76 17 -140 17 -85 0 -102 -4 -160
-31z"/>
<path d="M10570 1252 c-99 -37 -188 -120 -238 -222 -23 -49 -26 -67 -27 -160
0 -80 5 -118 19 -157 11 -29 23 -53 27 -53 4 0 10 -9 14 -19 10 -33 103 -117
160 -145 101 -49 237 -57 330 -19 49 20 145 82 145 93 0 8 -62 74 -92 98 -14
12 -22 10 -54 -12 -111 -75 -271 -48 -343 58 -70 102 -69 208 2 299 16 21 47
49 68 62 71 45 197 45 264 -1 20 -13 39 -24 43 -24 17 0 111 101 106 114 -5
14 -82 60 -149 88 -54 23 -213 23 -275 0z"/>
<path d="M11850 865 l0 -405 75 0 75 0 0 119 0 118 103 5 c60 3 117 11 139 21
53 22 126 93 150 146 29 63 29 180 0 236 -28 55 -84 111 -142 140 -47 24 -58
25 -225 25 l-175 0 0 -405z m364 216 c41 -38 53 -92 32 -138 -28 -62 -58 -77
-158 -81 l-88 -4 0 127 0 127 94 -4 c84 -3 97 -6 120 -27z"/>
<path d="M13840 865 l0 -405 85 0 85 0 0 405 0 405 -85 0 -85 0 0 -405z"/>
<path d="M5558 1185 c-47 -43 -49 -98 -7 -146 16 -19 30 -24 67 -24 50 0 83
22 97 64 6 20 13 21 136 21 104 0 129 -3 129 -14 0 -21 58 -66 85 -66 13 0 37
12 54 26 62 52 27 148 -54 148 -36 0 -85 -35 -85 -61 0 -10 -29 -13 -130 -13
l-130 0 -6 25 c-15 62 -108 85 -156 40z m112 -14 c19 -15 25 -29 25 -60 0 -53
-23 -76 -76 -76 -72 0 -104 75 -54 129 29 31 69 34 105 7z"/>
<path d="M6263 1043 c-12 -2 -34 -18 -48 -34 -25 -30 -25 -32 -25 -210 0 -190
7 -226 49 -249 26 -13 396 -13 422 0 42 23 49 59 49 242 0 155 -2 176 -20 206
-11 18 -32 37 -46 42 -24 10 -335 12 -381 3z"/>
<path d="M6008 865 c-16 -9 -29 -27 -33 -45 l-7 -30 -134 0 -134 0 0 -110 c0
-102 -1 -110 -19 -110 -25 0 -71 -55 -71 -84 0 -63 48 -116 105 -116 49 0 95
56 95 116 0 29 -46 84 -71 84 -17 0 -19 8 -19 100 l0 100 130 0 c107 0 130 -3
130 -14 0 -23 41 -46 80 -46 40 0 50 5 73 40 25 36 21 68 -12 101 -33 32 -70
37 -113 14z m-239 -341 c27 -35 26 -66 -2 -100 -33 -37 -81 -37 -114 0 -28 34
-29 65 -2 100 16 20 29 26 59 26 30 0 43 -6 59 -26z"/>
<path d="M7079 866 c-14 -9 -32 -29 -39 -46 -11 -28 -16 -30 -61 -30 -42 0
-49 3 -61 27 -28 58 -108 66 -148 16 -29 -37 -26 -76 11 -112 47 -48 116 -35
139 25 8 21 16 24 58 24 45 0 49 -2 65 -35 20 -41 57 -59 106 -51 53 8 76 37
76 96 0 37 -5 55 -21 70 -27 27 -91 35 -125 16z m99 -24 c32 -25 39 -81 14
-112 -28 -35 -96 -35 -123 0 -26 34 -24 72 6 104 28 31 69 34 103 8z"/>
<path d="M6013 550 c-62 -41 -53 -133 15 -154 18 -6 22 -15 22 -49 0 -37 -4
-44 -33 -58 -17 -8 -40 -30 -49 -48 -23 -47 -5 -98 45 -124 64 -33 132 0 142
69 7 49 -10 82 -52 103 -29 14 -33 21 -33 58 0 36 3 43 23 48 26 7 57 52 57
84 0 27 -48 79 -80 86 -16 3 -37 -2 -57 -15z m91 -286 c30 -19 39 -53 25 -92
-12 -34 -37 -47 -84 -43 -61 4 -86 81 -40 126 28 29 65 32 99 9z"/>
<path d="M6814 560 c-28 -11 -64 -58 -64 -82 0 -31 31 -76 57 -83 21 -5 23
-10 23 -80 l0 -75 -115 0 c-93 0 -115 3 -115 14 0 8 -14 28 -31 45 -64 64
-169 23 -169 -66 0 -50 22 -80 69 -94 48 -14 87 2 116 48 l20 32 123 1 122 0
0 84 c0 78 2 85 22 92 69 22 77 114 14 154 -37 22 -41 23 -72 10z m-259 -275
c32 -33 33 -74 1 -104 -33 -31 -93 -31 -118 -1 -63 78 46 175 117 105z"/>
</g>
</svg>
